<?xml version="1.0" standalone="no"?>
<!DOCTYPE svg PUBLIC "-//W3C//DTD SVG 20010904//EN"
 "http://www.w3.org/TR/2001/REC-SVG-20010904/DTD/svg10.dtd">
<svg version="1.0" xmlns="http://www.w3.org/2000/svg"
 width="2048.000000pt" height="2048.000000pt" viewBox="0 0 2048.000000 2048.000000"
 preserveAspectRatio="xMidYMid meet">

<g transform="translate(0.000000,2048.000000) scale(0.100000,-0.100000)"
fill="#000000" stroke="none">
<path d="M0 10240 l0 -10240 10240 0 10240 0 0 1995 c0 1439 -3 1995 -11 1995
-22 0 -136 -90 -156 -124 -5 -6 -39 -37 -78 -68 -38 -31 -85 -74 -103 -96 -18
-22 -56 -52 -85 -67 -28 -15 -66 -40 -84 -55 -17 -15 -53 -43 -80 -61 -26 -18
-50 -36 -53 -40 -3 -3 -29 -18 -58 -33 -29 -15 -71 -44 -93 -65 -22 -22 -63
-51 -92 -66 -47 -25 -111 -70 -145 -102 -6 -6 -21 -15 -32 -18 -11 -3 -20 -10
-20 -15 0 -5 -9 -12 -20 -15 -11 -4 -32 -17 -48 -30 -15 -12 -50 -35 -77 -50
-28 -15 -72 -42 -100 -59 -27 -18 -66 -40 -85 -50 -19 -10 -62 -33 -95 -51
-33 -19 -66 -34 -73 -35 -7 0 -25 -11 -40 -25 -16 -14 -70 -45 -122 -70 -51
-26 -101 -55 -110 -65 -9 -10 -23 -20 -31 -22 -26 -6 -50 -41 -106 -158 -75
-158 -182 -368 -207 -410 -12 -19 -26 -46 -33 -60 -6 -14 -34 -71 -62 -128
-28 -57 -51 -107 -51 -112 0 -5 -11 -33 -24 -62 -13 -29 -40 -100 -61 -158
-20 -58 -43 -118 -51 -135 -19 -39 -63 -88 -93 -104 -20 -11 -27 -10 -53 9
-27 20 -44 22 -181 25 -84 2 -170 9 -192 15 -22 6 -62 15 -90 20 -27 4 -86 18
-130 30 -44 12 -89 24 -100 27 -11 2 -29 8 -40 13 -11 5 -46 18 -77 29 -32 11
-68 26 -80 33 -31 17 -80 67 -75 76 2 4 28 57 58 117 30 61 60 116 67 123 7 8
10 18 7 23 -4 5 -1 9 4 9 6 0 11 6 11 14 0 8 8 21 18 28 19 14 32 39 58 111 9
26 23 51 30 55 13 8 74 120 74 137 0 6 9 16 20 23 11 7 20 21 20 31 0 11 4 22
9 25 5 3 14 26 20 51 6 25 16 45 21 45 6 0 10 7 10 15 0 8 4 15 9 15 5 0 15
16 21 35 6 19 15 35 18 35 4 0 22 30 41 68 87 175 104 208 116 222 21 27 52
86 64 123 7 20 17 37 22 37 5 0 9 8 9 18 0 27 48 122 65 128 8 4 15 15 15 25
0 20 3 27 40 99 60 117 88 160 148 225 64 70 101 125 83 125 -6 0 -3 17 6 37
15 38 10 90 -17 178 -6 19 -6 33 0 39 13 13 13 59 -1 73 -8 8 -8 17 0 31 8 15
7 21 -3 25 -10 4 -13 17 -9 46 4 27 2 41 -6 41 -6 0 -11 6 -11 14 0 8 -6 17
-12 20 -10 3 -8 9 5 19 9 8 17 28 17 46 0 19 6 34 15 37 8 4 13 10 10 14 -2 4
4 15 15 25 11 10 20 24 20 32 0 11 4 11 22 2 18 -10 24 -8 35 7 16 22 12 39
-11 38 -9 -1 -16 3 -16 8 0 6 13 8 32 4 30 -6 68 13 68 34 0 14 -33 21 -41 8
-6 -9 -10 -8 -15 5 -4 13 0 23 15 33 15 11 21 26 21 50 0 29 5 37 28 45 17 6
32 21 39 39 6 17 25 38 42 47 31 18 40 33 21 33 -12 0 -13 40 -1 59 11 18 31
5 31 -20 0 -23 13 -25 30 -4 16 19 34 19 49 1 20 -23 51 -8 51 25 0 16 3 28 8
26 14 -4 51 38 69 79 10 22 30 53 45 69 15 16 25 32 22 37 -3 4 2 15 10 24 9
8 16 12 16 8 0 -3 7 -1 15 6 8 7 15 21 15 31 0 11 4 19 8 19 15 0 42 58 42 89
0 26 4 30 22 28 15 -1 23 4 26 18 2 11 7 22 11 25 3 3 19 30 35 60 16 30 40
78 55 105 14 28 29 52 33 53 5 2 8 9 8 16 0 17 38 93 50 101 5 3 10 18 10 32
0 15 3 23 7 20 11 -12 33 15 33 41 0 31 21 92 32 92 4 0 8 8 8 18 0 9 9 32 20
50 11 18 20 41 20 52 0 10 11 31 24 45 13 14 27 42 31 62 4 20 13 46 21 57 16
24 19 62 4 71 -14 9 -58 -26 -64 -51 -3 -11 -18 -34 -33 -51 -48 -52 -62 -72
-69 -97 -3 -14 -12 -30 -20 -37 -8 -6 -14 -17 -14 -25 0 -19 -21 -29 -30 -14
-10 17 -30 4 -30 -19 0 -10 -11 -26 -25 -35 -20 -13 -25 -25 -25 -57 0 -26 -5
-42 -15 -46 -19 -7 -45 -55 -45 -83 0 -17 -4 -19 -26 -14 -29 7 -53 -17 -54
-53 0 -12 -11 -34 -25 -49 -14 -15 -25 -34 -25 -44 0 -10 -8 -16 -21 -16 -12
1 -26 -8 -33 -19 -6 -11 -14 -22 -17 -25 -3 -3 -11 -21 -19 -40 -8 -19 -25
-46 -38 -60 -20 -21 -43 -64 -43 -80 -1 -9 -44 -85 -53 -91 -4 -4 -3 -10 3
-14 7 -3 9 -15 6 -25 -3 -10 -8 -28 -10 -41 -2 -12 -12 -29 -22 -39 -10 -9
-27 -33 -38 -54 -11 -20 -30 -39 -43 -43 -25 -6 -62 -48 -62 -70 0 -9 -11 -24
-25 -35 -14 -11 -25 -28 -25 -38 0 -11 -10 -20 -25 -24 -15 -4 -27 -16 -31
-31 -3 -13 -21 -37 -40 -51 -19 -15 -34 -32 -34 -38 0 -20 -69 -86 -89 -86
-12 0 -21 -7 -21 -16 0 -9 5 -12 12 -8 8 5 9 -2 5 -26 -8 -39 -24 -60 -44 -60
-20 0 -84 -50 -81 -64 3 -17 -12 -56 -23 -56 -5 0 -9 -4 -9 -9 0 -5 -14 -23
-30 -41 -18 -20 -30 -43 -30 -60 0 -15 -7 -33 -15 -40 -8 -7 -15 -18 -15 -26
0 -7 -11 -24 -25 -38 -14 -14 -25 -31 -25 -39 0 -8 -7 -20 -15 -27 -8 -7 -13
-16 -10 -20 3 -5 -20 -35 -50 -67 -31 -32 -63 -71 -72 -87 -8 -16 -24 -38 -34
-49 -10 -12 -19 -27 -19 -34 0 -8 -16 -21 -36 -29 -24 -10 -40 -26 -50 -49 -8
-19 -19 -35 -24 -35 -6 0 -15 -12 -20 -26 -6 -14 -19 -28 -30 -31 -11 -3 -20
-8 -20 -12 0 -3 -16 -24 -35 -46 -19 -22 -35 -43 -35 -47 0 -4 -15 -14 -34
-23 -22 -10 -39 -28 -45 -46 -5 -16 -24 -37 -40 -47 -17 -9 -31 -25 -31 -36 0
-15 -3 -16 -14 -7 -11 10 -25 1 -71 -43 -37 -37 -70 -60 -98 -67 -23 -7 -49
-20 -59 -30 -9 -11 -28 -19 -43 -19 -15 0 -24 -4 -20 -10 3 -6 -1 -7 -9 -4 -9
3 -16 1 -16 -5 0 -6 -9 -11 -19 -11 -11 0 -23 -5 -26 -10 -7 -12 -70 -40 -104
-46 -13 -3 -32 -9 -42 -14 -10 -6 -26 -10 -37 -10 -11 0 -25 -7 -32 -15 -7 -8
-21 -15 -31 -15 -33 0 -113 -31 -137 -54 -13 -11 -32 -20 -43 -18 -10 2 -32
-6 -48 -17 -16 -12 -41 -21 -55 -21 -14 0 -45 -10 -68 -23 -52 -29 -109 -33
-142 -11 -23 14 -27 14 -48 0 -28 -20 -113 -22 -102 -4 6 10 3 9 -8 0 -11 -9
-42 -13 -92 -11 -42 1 -79 0 -81 -3 -6 -6 -55 3 -135 25 -30 9 -66 15 -80 16
-75 0 -210 44 -245 78 -14 14 -25 22 -25 18 0 -5 -8 1 -18 13 -14 16 -22 18
-36 10 -13 -7 -39 -7 -84 0 -41 7 -71 8 -83 2 -21 -12 -90 -14 -142 -5 -28 6
-42 3 -56 -9 -16 -14 -30 -15 -122 -5 -57 6 -126 8 -153 4 -34 -4 -51 -2 -57
6 -4 7 -22 17 -40 23 -29 10 -82 76 -60 76 4 0 6 10 4 23 -3 14 3 29 16 41 12
11 21 28 21 38 0 11 4 17 9 14 5 -4 12 8 16 24 4 17 18 38 31 46 13 9 24 21
24 26 0 18 59 93 88 112 17 11 36 34 44 50 8 19 22 32 35 34 12 2 25 12 28 23
4 11 24 31 46 44 21 14 46 37 56 52 10 16 28 38 41 49 12 12 22 25 22 30 0 5
16 19 35 32 19 12 35 28 35 35 0 8 17 22 38 33 20 11 36 23 34 28 -4 9 49 56
63 56 12 0 29 22 48 60 8 16 20 24 31 22 11 -2 22 0 25 5 3 4 15 13 26 19 11
6 24 25 29 42 8 27 13 31 35 27 37 -6 55 8 48 37 -5 18 -1 26 16 33 16 8 21
17 19 37 -1 14 2 29 8 33 13 8 13 72 0 80 -6 4 -8 10 -5 15 3 5 -3 17 -14 27
-51 46 -75 58 -156 73 -38 8 -76 18 -82 23 -8 6 -13 6 -13 -1 0 -6 -31 -10
-75 -10 -41 0 -72 4 -69 9 3 5 -2 9 -10 9 -8 0 -18 -4 -21 -10 -3 -5 -20 -10
-36 -10 -17 0 -38 -7 -46 -16 -12 -11 -25 -14 -47 -9 -66 14 -220 10 -211 -5
3 -6 -5 -10 -19 -10 -13 0 -26 5 -28 12 -3 9 -12 9 -36 -1 -17 -7 -29 -17 -26
-22 3 -5 -4 -9 -15 -9 -12 0 -21 5 -21 10 0 6 -12 10 -26 10 -16 0 -23 4 -18
12 4 6 3 8 -3 5 -6 -4 -35 -9 -65 -12 -48 -5 -58 -2 -83 19 -22 19 -29 35 -32
68 -1 24 -5 54 -7 68 -2 14 -4 38 -5 53 0 16 -5 26 -10 23 -5 -3 -14 1 -20 8
-8 10 -9 16 -1 21 5 3 10 14 10 24 0 10 7 24 15 31 18 15 65 5 65 -15 0 -7 5
-26 10 -41 8 -21 14 -24 22 -16 9 9 9 15 0 24 -15 15 -15 55 0 113 11 41 22
51 51 46 5 -1 6 3 3 8 -5 7 19 35 122 144 33 35 51 49 89 70 21 12 54 31 73
42 19 11 49 35 67 52 18 18 39 33 47 33 7 0 19 7 27 16 7 8 29 24 49 34 20 10
42 26 49 34 8 9 24 16 38 16 13 0 35 7 48 16 19 13 31 14 54 6 29 -10 30 -9
41 24 12 34 13 35 58 33 38 -3 47 0 50 14 5 25 46 39 78 27 39 -15 50 -12 62
16 11 24 17 25 80 25 98 -1 159 3 168 12 4 4 22 7 40 7 18 0 35 4 38 9 3 4 50
9 104 9 75 1 110 6 146 22 26 11 53 20 60 20 7 0 21 9 31 20 10 11 25 20 33
20 8 0 32 9 53 20 22 11 58 30 82 42 48 25 84 57 89 78 4 19 24 40 38 40 14 0
80 69 80 84 0 18 -52 85 -71 91 -11 4 -19 11 -19 17 0 7 -22 9 -65 6 -44 -4
-72 -1 -90 8 -19 10 -32 11 -45 4 -23 -12 -77 -13 -82 -1 -2 5 -35 13 -75 18
-39 5 -70 6 -67 1 3 -4 -24 -8 -60 -8 -37 0 -66 -4 -66 -10 0 -5 -13 -10 -29
-10 -35 0 -91 -19 -91 -31 0 -4 -24 -31 -52 -59 -44 -43 -58 -51 -81 -47 -17
2 -31 -1 -34 -9 -2 -7 -28 -18 -56 -24 -29 -7 -76 -20 -105 -31 -58 -21 -60
-21 -84 -8 -12 6 -18 6 -18 -1 0 -5 -8 -10 -17 -10 -9 0 -33 -11 -53 -25 -26
-18 -56 -27 -104 -32 -37 -3 -69 -10 -72 -14 -3 -5 -21 -9 -41 -9 -20 0 -44
-7 -54 -16 -9 -8 -45 -22 -79 -30 -34 -8 -68 -20 -76 -28 -7 -8 -22 -12 -31
-10 -10 2 -27 -3 -37 -11 -17 -13 -18 -19 -8 -53 16 -53 15 -61 -7 -59 -12 1
-17 7 -13 19 2 10 -1 18 -7 18 -6 0 -12 -6 -12 -12 -1 -7 -2 -17 -4 -23 -1 -5
-3 -16 -3 -22 -1 -8 -18 -13 -45 -13 -23 0 -53 -7 -66 -16 -19 -14 -25 -14
-32 -3 -12 20 -23 -14 -15 -46 6 -25 -8 -36 -17 -12 -4 9 -8 9 -23 -1 -50 -33
-87 -47 -91 -34 -3 6 -10 9 -15 6 -7 -4 -8 -2 -4 5 4 6 4 20 1 32 -9 29 -40
20 -40 -11 0 -26 -9 -28 -80 -16 -11 2 -28 -3 -38 -12 -14 -13 -22 -13 -44 -3
-25 12 -29 10 -49 -14 -18 -22 -27 -26 -51 -21 -22 5 -34 2 -48 -14 -10 -11
-28 -20 -39 -20 -17 0 -18 -2 -6 -10 10 -6 11 -10 3 -10 -7 0 -13 -5 -13 -11
0 -5 5 -7 11 -4 7 5 9 -9 7 -42 l-3 -48 -45 -3 c-68 -4 -90 -3 -157 4 -52 5
-68 12 -92 36 -28 29 -31 29 -130 29 -60 0 -101 3 -101 9 0 6 -20 10 -44 10
-25 0 -48 5 -51 10 -3 6 -24 10 -46 10 -21 0 -39 5 -39 10 0 6 -11 10 -25 10
-13 0 -37 6 -52 12 -29 13 -60 38 -47 38 4 0 -7 13 -24 30 -17 16 -33 40 -36
52 -38 214 -49 339 -34 403 17 73 32 109 56 135 15 16 43 48 62 70 64 74 72
81 87 68 10 -8 17 -8 25 0 33 33 91 2 142 -75 16 -23 39 -49 52 -58 13 -8 24
-22 24 -30 0 -8 4 -15 9 -15 5 0 15 -16 21 -35 6 -19 25 -44 41 -56 16 -11 29
-28 29 -38 0 -10 10 -23 23 -30 12 -6 32 -30 45 -51 26 -45 44 -50 60 -18 17
35 26 125 12 133 -7 4 -9 22 -4 51 4 30 3 44 -5 44 -6 0 -11 6 -11 13 0 7 -9
32 -20 55 -11 22 -20 56 -20 75 0 39 -23 91 -35 79 -4 -4 -5 11 -2 32 5 33 3
43 -18 62 -19 18 -25 33 -25 66 0 24 -9 61 -20 83 -28 55 -25 82 10 113 16 15
30 34 30 44 0 9 13 25 29 34 17 10 31 29 35 46 3 17 15 33 31 40 14 6 25 14
25 18 0 4 14 13 30 20 17 7 30 16 30 21 0 4 9 11 20 14 11 3 20 11 20 17 0 15
40 47 83 64 20 9 37 19 37 24 0 4 18 15 40 25 23 10 48 32 60 51 12 21 27 34
40 34 11 0 20 4 20 9 0 5 16 16 35 25 34 16 85 72 85 94 0 6 9 13 19 17 24 7
36 35 16 35 -8 0 -15 4 -15 9 0 4 -12 8 -27 8 -16 -1 -55 5 -88 12 -40 8 -103
11 -185 8 -145 -6 -226 -19 -278 -47 -20 -11 -42 -20 -48 -20 -13 0 -98 -64
-137 -102 -15 -16 -31 -28 -35 -28 -17 -1 -62 -51 -62 -69 0 -11 -6 -24 -14
-28 -30 -17 -86 -99 -86 -126 0 -33 -13 -61 -45 -94 -19 -22 -24 -23 -49 -12
-22 10 -31 10 -48 0 -11 -7 -17 -8 -14 -2 4 7 -10 10 -39 9 -26 0 -52 5 -58
11 -6 6 -19 11 -29 11 -10 0 -18 5 -18 10 0 6 -31 10 -74 10 -41 0 -76 4 -78
9 -1 5 -31 11 -65 13 -35 1 -61 7 -60 13 2 12 -47 7 -51 -6 -5 -13 -82 -11
-82 2 0 8 -4 8 -14 0 -18 -15 -46 -3 -57 25 -7 20 -15 24 -53 24 -37 0 -51 6
-76 30 -17 16 -35 30 -40 30 -12 0 -70 60 -70 72 0 5 6 6 13 2 6 -4 -2 7 -19
23 -38 36 -54 64 -54 95 0 13 -5 29 -11 35 -6 6 -12 24 -14 40 -1 15 -7 46
-13 68 -6 22 -15 69 -21 105 -19 106 -23 124 -37 138 -8 8 -12 23 -8 37 6 24
-22 79 -36 70 -4 -2 -8 15 -9 38 -6 122 -12 171 -22 183 -7 8 -12 52 -12 104
0 49 -4 90 -9 90 -4 0 -8 15 -8 34 0 19 -4 46 -9 59 -5 14 -11 52 -13 85 -1
34 -8 69 -15 79 -7 9 -13 13 -13 7 -2 -33 -30 67 -34 120 -2 35 -9 73 -15 83
-5 11 -9 34 -9 52 1 22 -5 37 -15 43 -12 6 -17 23 -17 58 0 28 -4 50 -10 50
-5 0 -10 11 -10 24 0 14 -4 28 -10 31 -5 3 -10 28 -10 55 0 28 -5 50 -12 52
-12 4 -16 19 -25 115 -3 35 -9 63 -14 63 -5 0 -9 15 -9 34 0 19 -4 38 -10 41
-5 3 -10 39 -10 79 0 53 -6 84 -21 115 -17 35 -18 45 -7 52 17 10 17 37 0 72
-7 15 -14 47 -16 71 -2 24 -7 50 -12 57 -4 7 -7 60 -6 118 2 64 -1 107 -8 111
-6 3 -11 30 -11 58 -1 28 -5 49 -9 47 -5 -3 -9 34 -9 82 -1 48 -5 89 -10 92
-4 3 -9 38 -9 76 0 52 -5 81 -20 107 -13 23 -22 61 -25 107 -3 47 -9 76 -19
84 -23 18 -41 73 -34 101 4 18 0 31 -18 49 -21 21 -24 36 -29 121 -6 100 -16
126 -48 126 -22 0 -24 11 -7 28 7 7 8 12 3 12 -6 0 -3 5 5 10 12 8 9 10 -11
10 -21 0 -30 7 -40 33 -7 17 -18 35 -23 39 -8 5 -7 8 1 8 14 0 11 26 -5 42 -9
9 -12 9 -12 -2 0 -24 -20 10 -20 35 -1 29 -41 74 -70 78 -18 3 -28 13 -34 34
-7 24 -17 32 -38 35 -15 3 -28 1 -28 -4 0 -4 -9 -3 -21 4 -14 9 -19 20 -16 36
3 17 -3 28 -22 40 -14 9 -29 21 -33 27 -20 30 -38 48 -36 37 4 -18 -25 -37
-44 -29 -9 3 -22 19 -29 35 -10 24 -21 31 -51 36 -32 5 -38 10 -38 31 0 14 -7
28 -15 31 -8 4 -15 12 -15 20 0 7 -6 11 -14 8 -8 -3 -12 -12 -9 -21 5 -13 3
-13 -15 -4 -12 7 -22 18 -22 26 0 22 -14 25 -48 8 -30 -15 -35 -14 -67 3 -25
13 -34 25 -34 43 -2 60 -9 94 -22 101 -21 12 -69 0 -69 -17 0 -12 3 -13 13 -4
11 8 13 6 11 -12 -1 -12 -3 -30 -3 -39 -1 -10 -7 -18 -15 -18 -19 0 -59 57
-53 74 7 18 -12 36 -30 29 -8 -3 -19 0 -24 8 -6 11 -9 8 -9 -8 0 -13 -5 -23
-11 -23 -22 0 -69 35 -65 47 5 12 0 14 -21 12 -5 0 -7 -7 -5 -15 2 -9 -2 -22
-9 -30 -9 -11 -8 -14 4 -14 8 0 17 -7 21 -15 3 -8 12 -12 21 -9 8 3 12 10 9
15 -3 5 1 9 8 9 9 0 12 -13 10 -45 -2 -25 -8 -45 -14 -45 -5 0 -6 5 -3 10 3 6
1 10 -4 10 -15 0 -14 -27 1 -32 17 -6 0 -28 -22 -28 -11 0 -20 8 -22 21 -5 35
-33 47 -57 25 -11 -10 -24 -15 -30 -12 -5 4 -12 2 -16 -4 -4 -7 -12 -7 -25 0
-18 10 -18 11 7 36 24 24 25 26 7 45 -10 12 -20 16 -22 10 -2 -6 -12 -11 -23
-11 -11 0 -22 -8 -25 -17 -3 -10 -9 -26 -14 -35 -6 -11 -5 -18 3 -21 8 -2 7
-9 -6 -21 -19 -19 -52 -14 -61 9 -4 10 -14 13 -34 9 -19 -4 -34 -1 -45 10 -19
20 -43 21 -50 2 -3 -8 3 -17 16 -21 19 -7 18 -8 -13 -14 -37 -8 -62 3 -54 23
3 7 -7 13 -26 14 -21 2 -30 -2 -30 -13 0 -8 -6 -15 -13 -15 -18 0 -37 21 -37
41 0 9 -12 29 -26 44 -21 22 -28 25 -34 14 -7 -11 -15 -8 -38 14 -16 15 -42
30 -58 33 -35 6 -42 13 -26 23 19 11 -8 61 -34 61 -24 0 -74 -22 -74 -32 0 -5
-4 -8 -10 -8 -5 0 -10 7 -10 15 0 8 -6 15 -14 15 -7 0 -24 11 -38 24 -33 30
-53 37 -66 24 -14 -14 -70 0 -76 20 -3 9 -8 34 -12 55 -5 30 -3 37 10 37 9 0
16 7 16 15 0 13 -4 13 -22 3 -28 -16 -41 -35 -48 -67 -3 -14 -9 -23 -15 -20
-5 2 -9 7 -7 12 1 4 -7 7 -18 7 -21 0 -27 15 -10 25 6 4 10 16 8 28 -2 17 3
23 24 25 14 2 32 11 40 20 9 11 10 14 0 8 -7 -4 -12 -2 -12 6 0 8 -8 25 -17
38 -19 28 -26 53 -12 44 5 -3 9 4 9 16 0 12 -3 19 -8 16 -15 -9 -44 22 -38 42
4 13 1 22 -8 25 -16 6 -18 47 -3 47 5 0 4 6 -2 14 -9 10 -6 17 12 29 31 20 53
7 49 -32 -4 -35 14 -49 35 -28 18 17 9 57 -13 57 -8 0 -14 9 -14 19 0 19 -25
36 -47 32 -16 -2 -16 8 -1 42 7 15 21 27 31 27 11 0 17 6 14 13 -2 6 -14 12
-26 12 -31 1 -42 24 -24 51 17 26 9 66 -12 58 -18 -7 -28 29 -20 72 4 23 2 34
-6 34 -8 0 -8 4 -1 13 6 8 5 28 -4 62 -17 66 -18 64 11 77 22 10 25 16 20 39
-7 33 11 58 37 51 19 -5 26 22 8 33 -5 3 -10 15 -10 25 0 12 -8 20 -22 22 -16
2 -23 10 -24 26 -1 12 -3 24 -5 25 -26 19 -65 54 -64 59 0 4 -9 14 -20 22 -19
14 -19 15 -1 22 11 4 22 2 28 -7 8 -12 9 -11 5 1 -2 8 5 20 17 27 20 12 20 13
-11 25 -18 7 -33 18 -33 25 0 6 -9 18 -21 27 -28 19 -18 56 16 56 29 0 28 25
-2 56 -17 17 -21 30 -17 51 4 24 0 31 -25 45 -32 18 -40 41 -19 54 9 6 5 10
-11 14 -13 3 -27 12 -31 20 -27 54 -32 71 -28 95 3 14 3 24 0 21 -2 -3 -11 2
-19 10 -9 8 -28 18 -44 21 -30 6 -40 23 -14 23 9 0 15 9 15 25 0 14 -6 25 -13
25 -8 0 -20 11 -27 24 -7 14 -22 26 -34 28 -13 2 -22 12 -24 26 -3 17 -10 22
-32 22 -34 0 -60 9 -60 21 0 5 3 8 8 7 14 -3 42 14 42 27 0 6 -14 27 -30 46
-17 19 -37 42 -46 52 -10 12 -13 28 -10 43 7 26 -3 31 -22 12 -9 -9 -12 -9
-13 2 -1 8 -1 19 0 23 2 13 -30 71 -50 90 -11 10 -24 15 -29 12 -6 -3 -10 0
-10 8 0 8 -9 22 -20 32 -11 10 -22 27 -26 39 -3 11 -17 35 -30 53 -29 38 -29
39 -4 46 18 5 30 29 13 26 -28 -5 -33 3 -27 40 6 39 6 40 -27 43 -29 3 -34 7
-37 32 -2 17 0 26 7 22 5 -4 12 -2 16 4 3 5 1 10 -6 10 -8 0 -9 10 -5 30 3 17
2 29 -3 26 -5 -3 -14 1 -21 9 -7 8 -16 13 -20 10 -12 -7 -26 17 -28 46 -2 29
22 57 33 39 3 -5 10 -10 15 -10 11 0 4 41 -8 49 -23 16 -56 79 -58 110 -3 28
-1 32 6 16 12 -29 12 -4 -1 33 -6 17 -27 43 -47 58 -20 15 -39 29 -41 30 -2 2
2 10 8 18 14 16 5 60 -9 51 -5 -3 -7 -12 -3 -20 3 -8 0 -15 -7 -15 -6 0 -8 5
-5 10 3 6 -1 13 -9 16 -18 7 -23 64 -6 64 14 0 12 20 -5 54 -19 35 -14 41 33
41 35 0 37 2 35 30 -5 78 -6 84 -25 88 -16 5 -18 9 -9 25 12 22 -3 42 -32 42
-10 0 -17 5 -14 13 3 10 31 13 69 8 4 -1 7 -11 7 -23 -1 -56 9 -71 43 -63 23
6 24 9 20 68 -2 34 -8 69 -13 78 -5 10 -2 24 8 39 13 18 13 24 2 31 -11 6 -10
9 4 15 12 4 16 13 12 25 -5 14 3 28 25 49 17 16 36 45 41 65 12 41 21 44 39
10 14 -26 34 -33 45 -15 3 6 2 10 -3 10 -13 0 -23 40 -14 56 10 17 52 -1 53
-23 0 -14 2 -13 9 5 5 12 14 22 21 22 6 0 9 6 6 13 -3 9 5 12 30 9 30 -4 34
-2 31 14 -2 11 -13 20 -26 22 -28 4 -24 26 6 30 12 2 22 8 22 13 0 5 3 8 8 8
18 -3 26 2 14 9 -14 9 -6 42 10 42 6 0 16 6 22 14 6 8 27 17 46 21 26 4 31 3
20 -4 -10 -7 -11 -11 -2 -11 6 0 12 -9 12 -20 0 -23 17 -25 44 -5 11 9 17 22
14 33 -5 19 22 52 42 52 6 0 13 7 16 15 4 8 12 15 19 15 8 0 23 12 34 26 12
15 21 21 21 13 0 -8 16 3 36 23 19 21 46 41 60 44 13 3 24 10 24 14 0 4 11 10
24 14 24 6 76 74 76 100 0 23 22 31 35 13 16 -23 19 -22 57 16 18 17 38 32 44
32 7 0 20 11 31 23 10 13 34 27 53 31 26 5 39 15 52 39 9 19 19 29 23 23 12
-21 44 -12 51 14 3 14 10 25 16 25 5 0 18 9 30 20 16 15 25 17 40 9 11 -6 21
-9 22 -7 7 12 26 78 26 91 0 10 8 17 18 17 15 0 19 -9 21 -47 1 -26 2 -48 4
-49 1 -1 17 10 35 25 32 27 32 28 13 49 -15 18 -17 30 -11 62 8 43 20 61 82
122 20 20 44 48 54 62 10 16 26 26 40 26 19 0 26 7 30 30 4 16 12 34 19 40 17
14 42 -25 47 -71 1 -19 8 -37 13 -41 6 -5 5 -8 -4 -8 -10 0 -12 -9 -7 -33 5
-26 2 -38 -13 -51 -16 -15 -22 -15 -39 -5 -27 17 -72 -5 -72 -34 0 -16 4 -18
28 -12 15 4 41 9 57 11 17 2 35 12 40 21 17 30 79 84 112 98 18 7 38 23 45 34
7 12 19 21 27 21 8 0 22 6 30 13 17 14 132 45 196 52 55 7 73 18 125 81 47 58
77 75 91 53 7 -11 18 -3 49 31 l40 45 19 -22 c24 -29 27 -29 66 5 17 15 42 34
55 42 12 8 30 22 39 31 28 29 59 32 87 10 21 -17 29 -18 45 -8 10 6 19 17 19
24 0 6 3 13 8 16 4 2 2 2 -5 1 -20 -5 -23 25 -2 31 10 4 19 11 19 17 0 5 7 8
15 5 8 -4 45 1 82 10 100 22 140 26 147 14 5 -8 13 -8 29 1 23 13 28 14 65 16
13 1 22 9 22 18 0 8 16 31 36 50 29 27 45 34 75 34 22 0 39 -4 39 -10 0 -17
40 -11 47 8 10 25 25 33 55 26 27 -5 88 19 88 36 0 5 -7 15 -15 24 -8 8 -15
19 -15 25 0 19 30 39 50 34 12 -3 19 -8 16 -11 -3 -2 6 -13 19 -24 14 -11 25
-27 26 -36 0 -9 5 -2 10 16 5 17 14 32 20 32 6 0 24 13 39 30 22 24 36 30 68
30 23 0 44 5 47 10 3 6 17 10 30 10 20 0 23 -4 20 -30 -3 -24 0 -30 15 -30 13
0 20 7 20 18 0 12 11 21 33 27 21 7 32 16 31 27 -1 10 2 15 7 12 5 -3 9 4 9
15 0 21 8 25 42 22 11 -2 20 7 24 23 3 15 13 26 23 26 9 0 22 5 29 12 7 7 12
9 12 5 0 -3 17 5 38 19 33 24 44 26 104 21 36 -3 91 -3 122 0 48 5 61 11 103
51 42 41 52 46 86 43 26 -2 37 1 33 8 -4 7 1 11 13 11 11 0 23 5 26 10 3 6 20
10 36 10 17 0 43 7 60 15 16 9 44 15 63 13 36 -2 66 15 66 38 0 13 16 18 50
16 8 0 18 5 22 11 4 7 30 11 63 11 35 -1 52 2 48 9 -4 6 2 8 16 4 12 -3 27 0
34 7 26 27 58 36 120 36 35 0 67 3 71 8 4 4 24 12 44 18 32 9 37 14 34 36 -3
33 29 43 72 21 41 -21 41 -20 28 -36 -9 -11 -6 -16 13 -25 31 -14 38 -3 39 63
1 35 4 41 19 37 9 -2 17 0 17 5 0 19 86 71 130 78 25 4 52 13 61 21 9 8 36 14
65 13 27 -1 76 4 109 10 33 6 92 11 132 11 39 0 75 4 78 10 6 10 221 7 231 -3
12 -12 -8 -47 -27 -47 -19 0 -69 -41 -69 -57 0 -4 -18 -21 -40 -37 -22 -17
-40 -34 -40 -39 0 -5 39 -6 93 -2 76 6 95 4 105 -8 18 -21 -22 -45 -85 -51
-26 -3 -50 -5 -53 -5 -3 -1 10 -10 28 -21 17 -11 32 -23 32 -27 0 -5 36 -9 80
-10 87 -3 134 -17 92 -29 -13 -4 -21 -13 -20 -23 2 -12 29 -20 118 -33 63 -10
134 -17 158 -18 65 0 112 -23 112 -54 0 -24 -4 -26 -40 -26 -80 0 -34 -50 59
-64 44 -7 121 -34 173 -62 16 -8 38 -12 52 -8 36 9 51 -4 31 -26 -9 -10 -15
-27 -13 -37 4 -19 16 -20 91 -7 21 3 37 2 36 -2 -1 -5 3 -22 10 -38 15 -37 7
-61 -17 -51 -9 4 -33 8 -52 8 -19 1 -41 6 -47 10 -9 5 -13 3 -13 -7 0 -11 9
-16 29 -16 27 0 57 -20 113 -76 15 -15 33 -24 41 -21 10 4 17 -2 21 -19 4 -16
13 -24 24 -23 35 3 43 -2 63 -36 17 -29 26 -35 48 -32 15 2 36 -4 50 -14 13
-11 29 -19 36 -19 6 0 20 -9 29 -19 10 -11 31 -25 47 -31 16 -7 29 -19 29 -26
0 -8 4 -14 9 -14 12 0 23 -29 15 -41 -3 -5 -17 0 -31 11 -14 11 -31 20 -37 20
-7 0 -35 23 -63 50 -53 52 -73 61 -73 34 0 -38 76 -124 109 -124 9 0 22 -5 28
-11 6 -6 20 -16 31 -23 111 -63 123 -72 118 -88 -5 -22 1 -23 21 -2 9 9 25 14
37 11 43 -11 92 -33 118 -53 l27 -21 -52 -7 c-81 -9 -104 -7 -123 12 -10 9
-20 17 -23 18 -17 2 -60 24 -66 33 -3 6 -15 11 -26 11 -11 0 -31 7 -45 16 -20
13 -30 15 -49 6 -32 -15 -23 -42 14 -42 14 0 39 -12 54 -26 28 -24 35 -38 36
-76 1 -10 11 -22 22 -29 12 -6 19 -7 16 -1 -4 5 -1 17 6 27 12 15 15 15 28 3
8 -7 32 -19 55 -26 22 -6 49 -21 59 -32 10 -11 28 -20 40 -20 16 0 26 -9 35
-30 10 -24 16 -28 39 -24 25 5 33 1 89 -47 7 -6 12 -21 10 -32 -2 -16 -9 -21
-25 -19 -25 4 -31 -16 -12 -35 9 -9 6 -21 -11 -47 -12 -20 -25 -36 -29 -36 -4
0 -24 9 -46 20 -22 11 -46 20 -54 20 -8 0 -28 12 -43 27 -26 24 -30 26 -44 11
-14 -14 -11 -18 30 -42 25 -15 46 -31 46 -36 0 -6 11 -10 25 -10 29 0 175 -76
175 -91 0 -5 11 -15 25 -21 14 -6 25 -17 25 -25 0 -18 -37 -16 -44 3 -6 17
-57 16 -63 -1 -1 -5 19 -26 47 -45 27 -19 49 -40 50 -46 0 -7 20 -21 44 -33
49 -22 76 -54 76 -87 0 -30 -24 -36 -53 -13 -14 10 -30 19 -35 19 -5 0 -15 7
-22 15 -7 9 -15 13 -18 11 -2 -3 -18 13 -33 34 -28 38 -61 52 -74 30 -13 -21
48 -90 111 -125 35 -20 64 -39 64 -43 0 -4 14 -16 30 -27 16 -11 30 -25 30
-32 0 -7 16 -20 35 -29 19 -9 35 -20 35 -25 0 -5 7 -9 15 -9 12 0 35 -28 35
-42 0 -2 -12 -5 -26 -6 -18 -1 -27 4 -31 17 -7 28 -32 34 -59 16 -28 -18 -28
-15 -9 -51 14 -27 15 -27 15 -6 0 27 21 29 44 3 9 -10 31 -21 48 -25 29 -6 30
-8 25 -41 -3 -19 -1 -37 4 -40 5 -4 9 -22 9 -42 0 -30 8 -43 45 -78 40 -36 45
-45 39 -72 -5 -26 -2 -32 15 -38 12 -3 21 -10 21 -15 0 -4 8 -10 18 -12 9 -3
24 -18 32 -34 8 -16 21 -37 29 -47 8 -9 19 -27 25 -40 7 -13 23 -23 39 -25 20
-3 38 -16 60 -48 17 -24 39 -46 49 -50 10 -3 18 -10 18 -15 0 -5 7 -9 15 -9 8
0 15 -7 15 -15 0 -8 22 -36 50 -62 27 -26 54 -60 61 -75 9 -21 18 -28 40 -28
16 0 29 -4 29 -8 0 -4 12 -15 28 -24 15 -9 39 -28 54 -42 15 -14 30 -26 33
-26 7 0 58 -45 119 -106 28 -28 56 -49 62 -47 18 6 34 -21 40 -67 5 -34 3 -41
-7 -35 -8 3 -2 -4 12 -17 14 -13 28 -32 32 -41 8 -21 26 -22 33 -2 9 22 34 18
34 -5 0 -12 -5 -17 -14 -14 -8 3 -15 -4 -18 -19 -5 -24 -3 -25 34 -21 29 4 38
1 38 -10 0 -8 -6 -16 -12 -19 -17 -6 5 -43 22 -39 6 1 9 -2 5 -7 -3 -6 3 -18
15 -28 11 -10 29 -26 40 -35 11 -10 20 -13 20 -8 0 6 -9 20 -20 32 -26 28 -27
60 -2 51 24 -9 32 -23 32 -56 0 -16 4 -26 10 -22 6 4 10 -5 10 -20 0 -15 6
-32 13 -40 80 -87 100 -105 112 -105 13 0 35 -56 35 -91 0 -17 36 -59 50 -59
6 0 10 -8 10 -18 0 -10 13 -32 28 -49 16 -17 41 -51 56 -77 38 -65 86 -108
114 -103 17 3 26 -3 37 -24 8 -15 15 -37 15 -49 0 -11 4 -20 9 -20 13 0 64
-52 92 -95 15 -22 44 -51 66 -65 56 -35 134 -140 104 -140 -6 0 -11 6 -11 13
0 7 -9 13 -20 14 -30 3 -24 -14 16 -41 19 -13 51 -48 69 -78 19 -30 46 -60 60
-66 26 -12 33 -40 14 -59 -12 -12 -36 -7 -55 11 -6 6 -25 22 -42 36 -18 14
-32 32 -32 41 0 14 -90 109 -104 109 -20 0 0 -31 37 -59 24 -18 51 -50 61 -71
14 -33 38 -58 103 -110 16 -13 40 -13 48 0 3 6 10 10 16 10 19 0 98 -93 105
-124 4 -17 18 -46 32 -64 l25 -33 22 21 23 22 7 -30 c3 -16 17 -40 31 -52 13
-13 24 -31 24 -41 0 -9 7 -22 15 -29 8 -7 15 -25 15 -41 0 -18 7 -32 20 -39
18 -9 20 -8 17 17 -1 15 -10 40 -20 54 -18 27 -14 59 7 59 7 0 27 -18 45 -40
38 -47 61 -53 53 -13 -3 16 -14 41 -24 58 -10 16 -18 46 -18 66 0 23 -7 42
-20 54 -24 22 -26 63 -3 72 11 4 23 -3 37 -20 21 -26 76 -39 76 -17 0 14 -60
80 -74 80 -21 1 -65 72 -72 116 -3 24 -10 47 -15 50 -12 7 -11 61 1 69 5 3 10
19 10 34 0 15 9 36 20 46 21 19 27 55 10 55 -14 0 -34 41 -23 49 18 11 20 36
7 63 -12 23 -19 27 -44 21 -28 -5 -30 -4 -30 26 0 31 8 36 52 32 9 -1 19 7 22
17 4 10 18 24 31 30 30 14 65 68 65 101 0 13 5 41 11 62 10 31 9 45 -5 79 -13
32 -14 50 -7 78 6 20 8 38 5 41 -19 20 -66 -105 -57 -153 3 -13 0 -27 -6 -30
-6 -4 -11 -18 -11 -32 0 -27 -12 -31 -30 -9 -9 11 -10 41 -4 123 l9 107 32 14
c28 12 32 19 37 65 10 96 18 141 27 150 5 6 9 24 9 41 0 17 5 36 11 42 7 7 13
27 14 46 1 18 18 60 38 93 35 56 49 103 27 89 -18 -11 -21 41 -4 86 9 24 16
56 16 71 -1 15 3 30 8 33 6 4 10 17 10 30 0 13 9 40 21 59 11 19 19 46 17 59
-2 21 16 71 32 87 3 3 12 18 20 35 8 16 36 52 63 79 44 47 61 86 37 86 -20 0
-9 42 22 88 40 59 161 179 220 220 50 34 156 82 237 106 107 32 263 15 387
-44 38 -18 80 -38 94 -44 14 -6 32 -18 40 -26 8 -9 30 -27 49 -40 42 -29 103
-83 149 -130 38 -39 132 -179 132 -196 0 -7 7 -14 15 -18 13 -5 15 302 15
2724 l0 2730 -10240 0 -10240 0 0 -10240z m15908 7792 c3 -9 -2 -13 -14 -10
-9 1 -19 9 -22 16 -3 9 2 13 14 10 9 -1 19 -9 22 -16z m231 -169 c43 -28 52
-43 26 -43 -18 0 -96 69 -78 70 6 0 30 -12 52 -27z m212 -24 c6 -13 7 -25 2
-30 -12 -12 -40 -2 -47 18 -14 35 26 46 45 12z m-596 -59 c3 -5 -1 -10 -9 -10
-9 0 -16 5 -16 10 0 6 4 10 9 10 6 0 13 -4 16 -10z m165 -255 c0 -8 -4 -15
-10 -15 -5 0 -10 7 -10 15 0 8 5 15 10 15 6 0 10 -7 10 -15z m-1035 -44 c3 -5
1 -12 -4 -15 -5 -3 -11 1 -15 9 -6 16 9 21 19 6z m1162 -149 c-19 -4 -47 14
-47 29 0 5 15 2 33 -8 25 -13 28 -18 14 -21z m-779 -136 c35 -18 35 -17 26
-40 -9 -24 -22 -20 -51 15 -20 23 -31 29 -49 25 -19 -5 -24 -2 -24 13 0 31 32
44 51 22 8 -10 30 -26 47 -35z m503 -86 c24 -14 25 -40 1 -40 -21 0 -56 33
-45 43 9 10 21 9 44 -3z m86 -67 c-9 -9 -45 7 -51 22 -5 13 -1 13 25 -1 17 -8
29 -18 26 -21z m-329 -4 c8 -13 10 -25 4 -31 -12 -12 -57 25 -48 40 11 18 30
14 44 -9z m610 -27 c3 -9 -2 -13 -14 -10 -9 1 -19 9 -22 16 -3 9 2 13 14 10 9
-1 19 -9 22 -16z m-448 -70 c0 -10 -4 -22 -10 -28 -5 -5 -11 -20 -13 -34 -4
-28 32 -63 75 -74 15 -3 43 -20 62 -36 19 -17 45 -30 59 -30 23 0 47 -23 47
-45 0 -17 -55 9 -86 40 -27 27 -43 35 -72 35 -20 0 -57 11 -82 24 -45 23 -45
23 -45 77 -1 43 3 58 20 71 26 23 45 23 45 0z m60 -46 c0 -18 -15 -36 -30 -36
-27 0 -34 17 -13 29 18 11 43 14 43 7z m-5984 -274 c-2 -4 -1 -14 4 -22 11
-18 -6 -50 -25 -50 -20 0 -19 39 2 62 16 18 28 25 19 10z m83 -33 c-8 -5 -10
-9 -5 -9 5 0 3 -7 -4 -15 -6 -8 -9 -19 -5 -25 10 -16 -11 -12 -25 5 -10 12
-10 15 1 16 10 0 11 2 2 6 -17 6 -16 23 1 23 7 0 20 7 27 16 9 12 14 13 17 4
3 -7 -2 -16 -9 -21z m-49 -78 c0 -23 -16 -36 -25 -21 -9 14 1 40 15 40 5 0 10
-9 10 -19z m6360 -26 c11 -13 10 -14 -4 -9 -9 3 -16 10 -16 15 0 13 6 11 20
-6z m-102 -63 c2 -7 -3 -12 -12 -12 -9 0 -16 7 -16 16 0 17 22 14 28 -4z m85
4 c31 -12 94 -82 84 -92 -7 -7 -114 75 -121 92 -7 17 -3 17 37 0z m-118 -88
c-6 -15 -1 -26 15 -38 31 -24 17 -44 -26 -37 -22 4 -37 1 -45 -9 -15 -18 -29
-18 -29 1 0 8 6 15 13 15 7 0 12 13 12 32 0 19 5 33 12 33 7 0 18 6 25 13 19
19 30 14 23 -10z m165 -122 c0 -8 7 -17 16 -20 9 -4 14 -9 11 -12 -7 -7 -57
25 -57 37 0 5 7 9 15 9 8 0 15 -6 15 -14z m30 -361 c0 -19 -11 -19 -35 -2 -24
18 -11 41 16 27 10 -6 19 -17 19 -25z m-7684 -142 c-10 -10 -19 5 -10 18 6 11
8 11 12 0 2 -7 1 -15 -2 -18z m7862 0 c6 -19 -25 -16 -32 3 -4 11 -1 14 11 12
9 -2 18 -9 21 -15z m142 -464 c0 -5 -7 -9 -15 -9 -8 0 -15 7 -15 15 0 9 6 12
15 9 8 -4 15 -10 15 -15z m50 -90 c0 -20 -15 -26 -25 -9 -9 15 3 43 15 35 5
-3 10 -15 10 -26z m-8630 1 c0 -5 -4 -10 -9 -10 -6 0 -13 5 -16 10 -3 6 1 10
9 10 9 0 16 -4 16 -10z m-4 -58 c-15 -15 -16 -14 -16 6 0 13 4 20 10 17 6 -3
10 0 11 7 0 10 2 10 6 0 3 -8 -2 -21 -11 -30z m8732 5 c6 -5 12 -18 12 -29 0
-15 -5 -18 -22 -13 -29 9 -48 33 -41 50 5 14 27 10 51 -8z m-8783 -194 c-14
-20 -19 -23 -26 -12 -15 25 -10 49 14 58 29 11 35 -11 12 -46z m10952 -325
c-3 -8 -6 -5 -6 6 -1 11 2 17 5 13 3 -3 4 -12 1 -19z m-1597 -128 c0 -5 -2
-10 -4 -10 -3 0 -8 5 -11 10 -3 6 -1 10 4 10 6 0 11 -4 11 -10z m-9144 -448
c-10 -10 -29 15 -21 28 6 9 10 8 17 -4 6 -10 7 -20 4 -24z m9644 -142 c0 -5
-2 -10 -4 -10 -3 0 -8 5 -11 10 -3 6 -1 10 4 10 6 0 11 -4 11 -10z m86 -64 c3
-8 19 -20 35 -26 16 -7 29 -16 29 -20 0 -4 14 -21 31 -39 33 -35 34 -54 1 -59
-15 -2 -25 4 -33 21 -6 14 -22 30 -35 36 -13 6 -24 16 -24 23 0 6 -9 22 -21
34 -12 12 -18 27 -14 33 9 15 25 14 31 -3z m190 -189 c13 -37 58 -86 80 -87 6
0 17 -6 23 -14 19 -22 -22 -30 -57 -12 -37 19 -102 106 -102 136 0 38 41 22
56 -23z m624 -338 c0 -24 -23 -21 -28 4 -2 10 3 17 12 17 10 0 16 -9 16 -21z
m-325 -91 c32 -21 45 -38 29 -38 -29 0 -83 26 -87 41 -7 26 15 24 58 -3z m344
-395 c1 -7 -3 -13 -8 -13 -13 0 -21 27 -14 47 6 15 7 15 14 -3 4 -10 8 -25 8
-31z m-9874 -1204 c8 -25 3 -31 -19 -23 -20 8 -21 44 -2 44 8 0 18 -9 21 -21z
m129 -97 c-4 -12 -13 -22 -20 -22 -17 0 -18 14 -3 42 14 25 30 11 23 -20z m46
-52 c0 -5 -4 -10 -10 -10 -5 0 -10 5 -10 10 0 6 5 10 10 10 6 0 10 -4 10 -10z
m1299 -184 c9 -10 9 -16 1 -21 -17 -11 -40 3 -34 20 8 19 18 19 33 1z m-99 -6
c0 -5 -4 -10 -10 -10 -5 0 -10 5 -10 10 0 6 5 10 10 10 6 0 10 -4 10 -10z
m600 -240 c0 -5 -9 -10 -21 -10 -11 0 -17 5 -14 10 3 6 13 10 21 10 8 0 14 -4
14 -10z m290 -280 c0 -5 -4 -10 -10 -10 -5 0 -10 5 -10 10 0 6 5 10 10 10 6 0
10 -4 10 -10z m687 -3192 c-3 -8 -6 -5 -6 6 -1 11 2 17 5 13 3 -3 4 -12 1 -19z
m2313 -2304 c0 -8 -19 -13 -24 -6 -3 5 1 9 9 9 8 0 15 -2 15 -3z m-553 -240
c-3 -3 -12 -4 -19 -1 -8 3 -5 6 6 6 11 1 17 -2 13 -5z m443 -574 c0 -23 -25
-27 -33 -6 -7 16 1 26 20 26 7 0 13 -9 13 -20z m3960 -400 c0 -5 -4 -10 -10
-10 -5 0 -10 5 -10 10 0 6 5 10 10 10 6 0 10 -4 10 -10z m2510 -1734 c0 -8
-43 -101 -49 -106 -3 -3 -31 -54 -61 -115 -30 -60 -57 -112 -60 -115 -10 -9
-86 -143 -136 -238 -57 -108 -66 -125 -117 -208 -20 -34 -37 -64 -37 -67 0 -3
-16 -29 -35 -59 -19 -29 -38 -62 -41 -73 -4 -11 -10 -22 -14 -25 -24 -18 -230
-334 -271 -418 -21 -41 -42 -68 -60 -78 -16 -8 -29 -22 -29 -30 0 -11 -5 -14
-16 -10 -9 3 -27 -3 -41 -14 -14 -11 -32 -20 -39 -20 -8 0 -14 -5 -14 -11 0
-6 -19 8 -42 30 -24 22 -61 49 -83 60 -116 57 -177 82 -245 101 -142 40 -152
44 -158 59 -4 9 8 26 33 45 21 17 57 49 80 71 23 22 65 56 93 75 28 19 51 38
52 41 0 9 36 49 44 49 4 0 20 13 36 30 16 16 34 30 40 30 5 0 10 7 10 15 0 8
4 15 10 15 5 0 20 16 32 35 13 19 31 37 40 40 24 8 73 51 146 130 18 19 37 35
42 35 13 0 90 83 90 98 0 6 5 12 10 12 6 0 10 5 10 10 0 12 65 76 114 114 17
13 45 36 62 52 17 16 56 47 88 69 109 77 318 240 356 277 14 14 39 32 55 40
17 9 39 25 49 37 16 18 56 30 56 17z"/>
<path d="M13915 17770 c-8 -13 45 -13 65 0 11 7 6 10 -22 10 -20 0 -40 -4 -43
-10z"/>
<path d="M11960 17356 c0 -19 5 -26 19 -26 11 0 23 -4 26 -10 10 -15 35 -12
35 5 0 8 -6 15 -14 15 -7 0 -25 9 -40 21 l-26 20 0 -25z"/>
<path d="M11476 17084 c-9 -22 -8 -24 9 -24 8 0 15 9 15 20 0 24 -15 27 -24 4z"/>
<path d="M14985 17080 c3 -5 8 -10 11 -10 2 0 4 5 4 10 0 6 -5 10 -11 10 -5 0
-7 -4 -4 -10z"/>
<path d="M15375 16650 c3 -5 10 -10 16 -10 5 0 9 5 9 10 0 6 -7 10 -16 10 -8
0 -12 -4 -9 -10z"/>
<path d="M9630 16475 c0 -8 6 -15 14 -15 22 0 28 17 10 24 -22 9 -24 8 -24 -9z"/>
<path d="M9565 16460 c3 -5 8 -10 11 -10 2 0 4 5 4 10 0 6 -5 10 -11 10 -5 0
-7 -4 -4 -10z"/>
<path d="M15684 16445 c-10 -8 -14 -15 -7 -15 19 0 43 11 43 21 0 13 -14 11
-36 -6z"/>
<path d="M15762 16421 c-10 -6 -4 -15 24 -37 20 -16 40 -39 45 -51 11 -28 26
-29 34 -3 3 11 13 27 22 35 14 15 13 15 -11 9 -20 -5 -34 1 -61 25 -40 35 -36
33 -53 22z"/>
<path d="M15612 16354 c4 -20 34 -41 45 -31 10 11 -11 41 -31 45 -12 3 -17 -2
-14 -14z"/>
<path d="M9470 16290 c0 -7 24 -20 36 -20 13 0 1 19 -16 23 -11 3 -20 2 -20
-3z"/>
<path d="M15834 16155 c3 -9 6 -19 6 -21 0 -2 7 -4 16 -4 22 0 13 34 -10 38
-14 3 -17 0 -12 -13z"/>
<path d="M16183 15602 c-15 -10 -5 -59 14 -67 22 -8 25 -2 18 39 -7 37 -12 41
-32 28z"/>
<path d="M8360 15550 c0 -5 5 -10 10 -10 6 0 10 5 10 10 0 6 -4 10 -10 10 -5
0 -10 -4 -10 -10z"/>
<path d="M8240 15361 c0 -5 5 -13 10 -16 6 -3 10 -2 10 4 0 5 -4 13 -10 16 -5
3 -10 2 -10 -4z"/>
<path d="M8200 15259 c0 -5 5 -7 10 -4 6 3 10 8 10 11 0 2 -4 4 -10 4 -5 0
-10 -5 -10 -11z"/>
<path d="M19770 15098 c-100 -28 -118 -35 -150 -68 -19 -19 -47 -43 -62 -53
-16 -9 -28 -22 -28 -28 0 -6 -17 -30 -37 -54 -53 -60 -126 -207 -127 -257 -1
-39 11 -45 35 -19 11 12 17 21 14 21 -4 0 0 7 9 15 18 18 52 20 60 3 5 -10 7
-10 12 0 3 6 12 12 20 12 8 0 14 5 14 10 0 6 16 10 36 10 21 0 33 4 29 10 -6
10 33 14 83 10 13 -1 28 2 35 7 18 13 108 0 106 -15 -4 -29 3 -33 59 -31 74 3
99 -6 106 -36 5 -20 13 -25 40 -25 18 0 39 -7 46 -15 7 -8 23 -15 36 -15 15 0
24 -6 24 -15 0 -8 5 -15 10 -15 6 0 10 -13 10 -29 0 -47 17 -81 40 -81 26 0
36 24 22 56 -13 27 -5 57 13 51 8 -4 12 7 12 29 0 29 -5 37 -34 50 -32 16 -49
52 -19 41 21 -8 39 18 28 40 -5 10 -15 38 -21 63 -6 25 -13 52 -16 60 -2 8 -4
20 -4 25 -1 6 -6 3 -11 -5 -8 -12 -10 -10 -10 9 0 25 -46 101 -61 101 -4 0
-11 -4 -14 -10 -3 -5 -10 -10 -15 -10 -13 0 -21 33 -10 44 17 17 12 26 -20 37
-16 6 -28 16 -27 22 1 6 -8 16 -20 22 -13 5 -23 13 -23 17 0 5 -11 8 -24 8
-14 0 -28 5 -31 10 -8 12 -88 11 -135 -2z"/>
<path d="M7907 14824 c-18 -18 -6 -55 21 -65 15 -6 35 -15 45 -20 37 -20 51
22 20 60 -19 22 -73 38 -86 25z"/>
<path d="M20246 14532 c-2 -4 2 -15 9 -25 11 -16 13 -16 19 -1 10 25 -14 48
-28 26z"/>
<path d="M17544 13948 c9 -13 23 -38 32 -57 8 -18 24 -43 35 -55 12 -11 27
-33 34 -47 15 -27 63 -64 72 -55 13 13 -12 56 -67 116 -34 36 -67 77 -76 93
-8 15 -22 27 -30 27 -15 0 -15 -2 0 -22z"/>
<path d="M17731 13660 c-1 -15 4 -31 11 -38 12 -12 48 -17 48 -6 0 15 -22 44
-35 44 -7 0 -16 6 -18 13 -3 6 -6 1 -6 -13z"/>
<path d="M18813 13653 c-10 -4 -9 -9 3 -20 17 -18 30 -11 17 10 -4 8 -14 12
-20 10z"/>
<path d="M19117 13564 c-11 -11 -8 -52 4 -60 6 -3 14 -2 19 2 10 11 -12 69
-23 58z"/>
<path d="M19161 13481 c-12 -8 -13 -12 -1 -26 7 -9 19 -14 27 -11 7 3 13 -1
13 -9 0 -7 9 -17 20 -20 11 -3 20 -13 20 -21 0 -8 5 -14 10 -14 13 0 13 6 -2
32 -11 18 -66 78 -72 78 0 0 -7 -4 -15 -9z"/>
<path d="M17870 13471 c0 -5 9 -19 20 -32 17 -21 21 -22 30 -9 15 23 13 27
-20 39 -16 5 -30 6 -30 2z"/>
<path d="M19120 13439 c0 -5 5 -7 10 -4 6 3 10 8 10 11 0 2 -4 4 -10 4 -5 0
-10 -5 -10 -11z"/>
<path d="M17930 13382 c0 -5 7 -16 16 -23 14 -12 16 -11 13 5 -4 20 -29 35
-29 18z"/>
<path d="M17972 13338 c3 -7 15 -14 29 -16 23 -2 23 -2 5 13 -24 18 -39 20
-34 3z"/>
<path d="M18120 13310 c0 -5 5 -10 11 -10 5 0 7 5 4 10 -3 6 -8 10 -11 10 -2
0 -4 -4 -4 -10z"/>
<path d="M8684 13273 c10 -10 46 -11 46 -1 0 4 -12 8 -27 8 -14 0 -23 -3 -19
-7z"/>
<path d="M14191 13116 c-14 -15 -21 -32 -18 -40 9 -22 24 -20 39 4 7 11 18 20
25 20 16 0 9 34 -8 38 -8 1 -25 -8 -38 -22z"/>
<path d="M14105 13120 c4 -6 11 -8 16 -5 14 9 11 15 -7 15 -8 0 -12 -5 -9 -10z"/>
<path d="M18750 13060 c0 -5 5 -10 10 -10 6 0 10 5 10 10 0 6 -4 10 -10 10 -5
0 -10 -4 -10 -10z"/>
<path d="M14060 13051 c0 -13 -61 -36 -87 -33 -12 2 -37 -3 -55 -11 -50 -22
-152 -20 -174 4 -24 26 -34 24 -34 -9 0 -20 -7 -32 -22 -39 -48 -23 -60 -23
-77 -1 -11 13 -20 17 -24 11 -4 -6 0 -16 8 -23 23 -19 18 -39 -11 -50 -37 -14
-67 -13 -58 3 4 6 -2 4 -13 -5 -11 -10 -24 -18 -30 -18 -6 0 -16 -7 -23 -15
-7 -8 -21 -15 -31 -15 -11 0 -27 -4 -37 -10 -9 -5 -48 -16 -87 -26 -38 -9 -90
-23 -113 -31 -24 -8 -52 -15 -63 -16 -10 -1 -22 -9 -25 -19 -4 -13 -15 -18
-39 -18 -19 0 -37 -5 -40 -11 -4 -6 -19 -7 -36 -4 -28 6 -75 -12 -107 -42 -7
-7 -21 -13 -30 -13 -9 0 -30 -16 -47 -35 -22 -26 -38 -35 -62 -35 -24 0 -37
-7 -53 -30 -16 -22 -27 -29 -41 -25 -17 6 -22 -1 -18 -31 0 -3 -8 -13 -19 -22
-10 -9 -23 -25 -29 -36 -6 -12 -24 -20 -48 -22 -21 -2 -46 -10 -55 -19 -15
-14 -34 -19 -81 -24 -4 -1 -10 -12 -13 -26 -4 -16 -13 -25 -25 -25 -12 0 -21
-9 -25 -25 -4 -14 -11 -25 -17 -25 -6 0 -17 -7 -26 -15 -8 -9 -18 -13 -22 -9
-3 4 0 9 7 11 6 3 12 16 12 29 0 16 8 28 25 36 34 15 22 28 -26 28 -29 0 -47
-7 -65 -25 -27 -27 -50 -32 -56 -13 -5 14 -38 4 -38 -12 0 -5 11 -10 25 -10
16 0 23 -4 19 -14 -9 -24 -53 -36 -131 -36 l-75 0 6 -25 c7 -29 -1 -32 -20 -7
-12 16 -16 13 -53 -28 -22 -25 -41 -53 -41 -62 0 -10 -5 -18 -11 -18 -6 0 -9
9 -6 20 4 14 0 20 -11 20 -15 0 -15 2 -2 10 10 6 11 10 3 10 -7 0 -35 -23 -62
-51 -45 -47 -52 -50 -84 -44 -29 6 -39 3 -53 -14 -21 -24 -54 -28 -54 -6 0 8
-5 15 -10 15 -6 0 -10 -6 -9 -12 3 -26 -1 -38 -15 -38 -7 0 -26 -18 -41 -40
-16 -23 -36 -40 -47 -40 -11 0 -23 -11 -29 -27 -6 -16 -18 -37 -28 -48 -10
-11 -21 -37 -24 -59 -8 -48 -13 -53 -38 -38 -11 7 -24 10 -29 7 -12 -8 -13
-35 -1 -35 14 0 29 -74 20 -98 -8 -20 -6 -22 18 -20 14 2 28 -3 30 -9 3 -8 -3
-13 -14 -13 -18 0 -19 -4 -10 -55 7 -34 15 -55 24 -55 17 0 17 -10 -3 -24 -18
-13 -9 -46 12 -46 18 0 18 -29 0 -36 -16 -6 -12 -62 6 -97 7 -13 5 -26 -6 -43
-13 -19 -14 -28 -4 -43 9 -16 9 -25 -2 -48 -17 -34 -15 -49 13 -90 27 -40 35
-41 48 -6 8 22 12 25 21 13 8 -12 9 -11 4 3 -7 20 21 87 35 87 18 0 13 -58 -6
-80 -18 -20 -3 -49 17 -33 18 15 45 -5 53 -40 6 -22 13 -27 37 -27 22 0 29 -4
25 -14 -8 -19 16 -38 37 -30 9 3 16 1 16 -5 0 -6 12 -11 26 -11 16 0 24 5 21
13 -2 6 -14 11 -25 9 -14 -2 -22 2 -22 11 0 11 13 15 52 15 40 0 55 -5 72 -23
19 -20 24 -21 41 -9 10 8 25 14 33 14 15 0 44 25 36 32 -2 3 14 11 37 18 23 8
43 20 46 27 10 25 22 13 17 -17 -6 -27 -4 -31 25 -36 17 -4 32 -5 33 -4 2 1
19 -6 38 -17 27 -16 35 -26 35 -49 0 -18 10 -39 28 -56 17 -18 27 -38 27 -57
0 -17 11 -42 25 -59 14 -17 25 -39 25 -51 0 -12 5 -21 10 -21 6 0 10 -4 10
-10 0 -8 40 -77 72 -122 7 -10 18 -18 25 -18 6 0 14 -9 18 -19 8 -25 108 -100
148 -112 18 -5 43 -9 57 -9 14 0 44 -10 68 -22 l42 -23 25 30 c13 17 27 39 31
50 10 31 44 64 60 58 8 -3 14 0 14 6 0 6 -5 11 -12 11 -6 0 -8 3 -5 7 4 3 2
12 -5 20 -15 18 -1 30 20 16 16 -10 19 -23 21 -96 1 -24 4 -27 26 -21 20 5 30
0 46 -20 26 -33 82 -63 87 -47 2 6 10 11 18 11 7 0 20 14 29 30 9 17 22 30 31
30 8 0 18 8 21 18 22 58 133 142 190 142 13 0 23 5 23 10 0 6 5 10 10 10 6 0
26 18 46 40 20 22 43 40 50 40 8 0 22 4 32 9 27 14 84 30 122 35 19 3 55 14
80 25 25 11 56 21 70 21 14 0 39 7 55 16 17 9 75 29 129 46 55 16 106 33 115
38 9 4 41 18 71 31 54 23 142 77 148 92 2 4 9 7 15 7 22 0 87 77 102 119 15
45 22 91 29 211 6 83 7 85 90 126 43 21 64 24 155 24 97 0 171 14 171 32 0 4
17 12 38 18 26 6 43 18 50 35 6 14 23 27 39 31 15 4 38 14 50 21 12 8 27 12
32 9 5 -4 25 3 43 14 18 11 39 20 45 20 17 0 53 31 53 45 0 6 13 24 30 40 16
15 27 31 25 36 -3 4 1 10 7 12 8 3 6 6 -4 6 -10 1 -18 5 -18 9 0 8 -72 30
-100 31 -8 0 -46 3 -85 7 -71 7 -218 6 -310 -1 -79 -7 -176 -13 -223 -14 -29
-1 -42 -5 -40 -13 3 -8 40 -12 119 -13 140 -3 347 -21 383 -35 15 -5 41 -10
57 -10 26 0 30 -3 27 -22 -2 -19 -11 -24 -52 -30 -27 -4 -52 -11 -55 -17 -4
-6 -50 -12 -102 -14 -61 -3 -109 -11 -131 -21 -20 -10 -45 -18 -57 -19 -11 -1
-21 -4 -21 -8 0 -4 -15 -13 -34 -19 -27 -9 -39 -8 -56 2 -16 10 -22 10 -28 1
-8 -12 -131 -10 -220 3 -23 3 -48 2 -55 -4 -6 -5 -72 -10 -145 -10 -73 0 -139
-5 -145 -10 -7 -6 -32 -12 -57 -15 -25 -2 -73 -12 -108 -22 -65 -18 -78 -16
-69 8 5 15 138 97 157 97 6 0 24 10 40 21 16 12 35 19 44 16 8 -3 26 3 39 14
14 10 34 19 45 19 12 0 24 5 27 10 8 13 -8 13 -101 -4 -44 -8 -92 -17 -109
-19 -50 -8 -149 -37 -159 -48 -6 -5 -19 -9 -30 -9 -22 0 -88 -21 -96 -31 -3
-3 -43 -18 -88 -34 -61 -20 -94 -26 -122 -21 -30 5 -42 2 -52 -11 -16 -22 -52
-43 -73 -43 -8 0 -15 -4 -15 -10 0 -5 -14 -10 -30 -10 -36 0 -78 -20 -102 -49
-10 -12 -24 -18 -33 -15 -10 4 -26 -3 -41 -17 -31 -29 -60 -34 -89 -15 -21 14
-23 13 -30 -7 -4 -12 -8 -24 -9 -27 -9 -27 -32 -53 -54 -61 -59 -23 -103 -19
-81 7 7 8 9 28 5 49 -6 28 -4 35 9 35 8 0 15 9 15 20 0 11 -4 20 -10 20 -5 0
-10 5 -10 10 0 15 16 12 34 -6 12 -12 16 -12 16 -2 0 10 2 10 9 -1 6 -9 11
-10 15 -2 4 6 5 15 2 20 -4 5 -1 22 6 38 6 15 12 30 13 33 1 3 7 18 13 33 7
16 12 35 12 44 0 8 13 20 29 26 17 6 32 21 35 34 8 31 50 73 73 73 19 0 53 28
53 44 0 5 27 35 60 67 33 32 60 63 60 69 0 5 7 10 15 10 9 0 18 7 21 15 4 8
13 15 21 15 17 0 45 29 70 71 8 14 28 34 44 45 25 17 30 24 29 49 -1 14 48 53
73 59 22 5 27 11 22 25 -3 12 0 21 10 25 8 3 15 12 15 21 0 8 7 15 15 15 8 0
15 -7 15 -15 0 -8 7 -15 16 -15 12 0 15 8 12 33 -3 30 -1 32 25 29 20 -2 27 2
27 15 0 10 29 43 65 73 36 31 65 63 65 74 0 32 83 126 112 126 9 0 20 5 23 11
4 5 18 14 31 19 13 5 24 14 24 20 0 13 -46 13 -72 -1 -29 -16 -37 0 -10 21 12
10 22 27 22 39 0 15 10 23 38 30 50 14 80 36 67 50 -6 6 -36 13 -66 17 l-57 6
-11 -35 c-7 -19 -19 -38 -28 -41 -26 -10 -30 4 -7 23 20 16 21 20 8 49 -13 31
-12 32 11 32 14 0 25 -4 25 -10 0 -16 18 -12 60 15 22 14 51 25 65 25 37 0 21
18 -23 26 -60 11 -64 15 -44 54 13 27 24 36 47 38 40 4 105 34 105 49 0 6 10
19 22 27 18 13 19 16 5 16 -9 0 -17 -4 -17 -9z m-2110 -930 c0 -6 -4 -13 -10
-16 -5 -3 -10 1 -10 9 0 9 5 16 10 16 6 0 10 -4 10 -9z m-490 -915 c0 -11 -19
-15 -25 -6 -3 5 1 10 9 10 9 0 16 -2 16 -4z m-17 -99 c3 -8 1 -20 -3 -27 -11
-18 -41 5 -33 26 7 18 29 18 36 1z"/>
<path d="M14072 12968 c6 -18 28 -21 28 -4 0 9 -7 16 -16 16 -9 0 -14 -5 -12
-12z"/>
<path d="M18236 12962 c-7 -11 52 -38 61 -28 4 3 2 10 -3 15 -15 15 -52 22
-58 13z"/>
<path d="M18357 12954 c-14 -15 -6 -32 17 -38 13 -3 26 -15 29 -26 6 -22 27
-28 27 -7 0 17 -64 79 -73 71z"/>
<path d="M18530 12717 c0 -15 17 -38 47 -65 52 -47 53 -48 53 -27 0 8 -4 15
-10 15 -5 0 -10 6 -10 13 0 13 -62 87 -73 87 -4 0 -7 -10 -7 -23z"/>
<path d="M18530 12569 c0 -20 21 -49 35 -49 18 0 20 31 3 48 -15 15 -38 16
-38 1z"/>
<path d="M18740 12555 c7 -9 15 -13 17 -11 7 7 -7 26 -19 26 -6 0 -6 -6 2 -15z"/>
<path d="M8942 12548 c2 -6 10 -14 16 -16 7 -2 10 2 6 12 -7 18 -28 22 -22 4z"/>
<path d="M18720 12428 c1 -15 24 -48 34 -48 11 0 7 35 -6 48 -16 16 -28 15
-28 0z"/>
<path d="M8950 12386 c0 -9 5 -16 10 -16 6 0 10 4 10 9 0 6 -4 13 -10 16 -5 3
-10 -1 -10 -9z"/>
<path d="M12070 12310 c-8 -5 -10 -10 -5 -11 6 0 -1 -5 -15 -9 -25 -8 -25 -8
-2 -9 13 -1 20 -5 17 -11 -3 -5 -1 -10 4 -10 6 0 11 6 11 14 0 8 9 18 20 21
11 3 20 11 20 16 0 12 -31 11 -50 -1z"/>
<path d="M13495 12219 c-10 -14 -1 -21 19 -13 9 3 13 10 10 15 -7 12 -21 11
-29 -2z"/>
<path d="M14340 11800 c0 -5 14 -10 30 -10 17 0 30 5 30 10 0 6 -13 10 -30 10
-16 0 -30 -4 -30 -10z"/>
<path d="M14108 11753 c7 -3 16 -2 19 1 4 3 -2 6 -13 5 -11 0 -14 -3 -6 -6z"/>
<path d="M9045 11720 c3 -5 8 -10 11 -10 2 0 4 5 4 10 0 6 -5 10 -11 10 -5 0
-7 -4 -4 -10z"/>
<path d="M9330 11453 c0 -14 14 -29 33 -36 15 -6 18 -2 15 16 -2 14 -11 23
-25 25 -13 2 -23 0 -23 -5z"/>
<path d="M10427 11354 c-9 -10 4 -34 19 -34 8 0 14 4 14 9 0 12 -26 32 -33 25z"/>
<path d="M11472 11009 c2 -6 8 -10 13 -10 5 0 11 4 13 10 2 6 -4 11 -13 11 -9
0 -15 -5 -13 -11z"/>
<path d="M20454 10944 c-4 -10 -20 -31 -37 -45 -26 -23 -30 -31 -28 -79 1 -52
13 -106 34 -145 6 -11 12 -38 14 -60 2 -22 9 -54 14 -71 6 -20 6 -62 0 -118
-6 -47 -8 -93 -4 -102 6 -17 -13 -59 -39 -86 -27 -27 -22 -41 13 -36 26 4 33
0 42 -21 10 -20 13 59 15 368 1 248 -1 398 -8 405 -6 6 -12 3 -16 -10z"/>
<path d="M20074 10647 c-163 -93 -216 -137 -289 -237 -36 -50 -40 -60 -38
-110 1 -30 11 -102 23 -160 13 -58 25 -119 27 -137 8 -49 24 -57 61 -29 18 12
29 26 26 29 -8 8 18 3 34 -6 8 -6 12 -2 12 10 0 11 16 25 40 37 33 16 46 31
71 85 46 97 47 101 65 166 16 57 38 341 28 357 -7 12 -36 9 -60 -5z"/>
<path d="M13007 10300 c-3 -10 1 -31 9 -45 10 -19 11 -32 3 -46 -7 -15 -6 -27
7 -48 17 -29 43 -41 134 -62 30 -6 58 -16 61 -21 7 -11 104 -25 227 -34 181
-13 273 -4 298 30 11 14 18 17 21 9 5 -14 44 -18 42 -5 -4 26 4 42 26 48 15 4
25 13 25 25 0 10 12 25 27 32 l27 15 -34 17 c-25 13 -30 19 -19 26 15 9 -36
15 -98 10 -18 -1 -33 2 -33 7 0 13 -67 31 -91 25 -14 -4 -26 0 -34 11 -13 17
-43 20 -165 16 -43 -1 -71 -8 -84 -19 -12 -10 -34 -16 -66 -15 -42 2 -49 -1
-64 -27 -11 -18 -22 -26 -32 -22 -13 5 -13 7 -2 15 8 5 2 6 -17 2 -16 -4 -34
-11 -39 -15 -6 -5 -20 -9 -33 -9 -18 0 -25 7 -29 28 -4 15 -19 37 -34 49 -27
22 -28 22 -33 3z"/>
<path d="M12940 10215 c-8 -9 -8 -15 -2 -15 12 0 26 19 19 26 -2 2 -10 -2 -17
-11z"/>
<path d="M13736 5211 c-3 -5 3 -11 14 -14 13 -3 20 0 20 9 0 15 -26 19 -34 5z"/>
<path d="M17980 4214 c0 -9 5 -14 12 -12 18 6 21 28 4 28 -9 0 -16 -7 -16 -16z"/>
<path d="M17982 3650 c0 -14 2 -19 5 -12 2 6 2 18 0 25 -3 6 -5 1 -5 -13z"/>
</g>
</svg>
